<?xml version="1.0" encoding="UTF-8" standalone="no"?>
<!-- Created with Inkscape (http://www.inkscape.org/) -->

<svg
   xmlns:dc="http://purl.org/dc/elements/1.1/"
   xmlns:cc="http://creativecommons.org/ns#"
   xmlns:rdf="http://www.w3.org/1999/02/22-rdf-syntax-ns#"
   xmlns:svg="http://www.w3.org/2000/svg"
   xmlns="http://www.w3.org/2000/svg"
   xmlns:sodipodi="http://sodipodi.sourceforge.net/DTD/sodipodi-0.dtd"
   xmlns:inkscape="http://www.inkscape.org/namespaces/inkscape"
   width="3129.2483"
   height="1626.699"
   id="svg2994"
   version="1.1"
   inkscape:version="0.48.5 r10040"
   sodipodi:docname="PosterLogo.svg">
  <defs
     id="defs2996" />
  <sodipodi:namedview
     id="base"
     pagecolor="#ffffff"
     bordercolor="#ffffff"
     borderopacity="0.0"
     inkscape:pageopacity="0.0"
     inkscape:pageshadow="0"
     inkscape:zoom="0.56806641"
     inkscape:cx="1088.5515"
     inkscape:cy="895.65547"
     inkscape:document-units="px"
     inkscape:current-layer="layer1"
     showgrid="false"
     inkscape:window-width="1680"
     inkscape:window-height="998"
     inkscape:window-x="-8"
     inkscape:window-y="-8"
     inkscape:window-maximized="1"
     fit-margin-top="0"
     fit-margin-left="0"
     fit-margin-right="0"
     fit-margin-bottom="0" />
  <metadata
     id="metadata2999">
    <rdf:RDF>
      <cc:Work
         rdf:about="">
        <dc:format>image/svg+xml</dc:format>
        <dc:type
           rdf:resource="http://purl.org/dc/dcmitype/StillImage" />
        <dc:title></dc:title>
      </cc:Work>
    </rdf:RDF>
  </metadata>
  <g
     inkscape:label="Layer 1"
     inkscape:groupmode="layer"
     id="layer1"
     transform="translate(831.5,399.78125)">
    <path
       style="fill:#bb9d61;fill-opacity:1;stroke:#000000;stroke-width:0;stroke-linecap:butt;stroke-linejoin:miter;stroke-miterlimit:4;stroke-opacity:1;stroke-dasharray:none"
       d="m -239.40615,-259.82597 46.46701,11.11167 32.82996,-147.98734 -12.12183,-3.03046 z"
       id="path3045"
       inkscape:connector-curvature="0" />
    <path
       style="fill:#a0783f;fill-opacity:0.94117647;stroke:#000000;stroke-width:0;stroke-linecap:butt;stroke-linejoin:miter;stroke-miterlimit:4;stroke-opacity:1;stroke-dasharray:none"
       d="M 91.061662,967.95317 150.00765,917.00174 81.822356,502.8392 32.829958,652.34177 z"
       id="path3031"
       inkscape:connector-curvature="0"
       sodipodi:nodetypes="ccccc" />
    <path
       style="fill:#bb9d61;fill-opacity:1;stroke:#000000;stroke-width:0;stroke-linecap:butt;stroke-linejoin:miter;stroke-miterlimit:4;stroke-opacity:1;stroke-dasharray:none"
       d="M -16.667517,830.6337 6.0609153,946.29617 91.418805,968.01445 33.335034,651.33162 z"
       id="path3029"
       inkscape:connector-curvature="0" />
    <path
       style="fill:#bb9d61;fill-opacity:1;stroke:#000000;stroke-width:0;stroke-linecap:butt;stroke-linejoin:miter;stroke-miterlimit:4;stroke-opacity:1;stroke-dasharray:none"
       d="m -186.80366,906.14282 -7.22951,317.22208 85.71428,3.4564 10.339195,-316.05357 z"
       id="path3023"
       inkscape:connector-curvature="0"
       sodipodi:nodetypes="ccccc" />
    <path
       style="fill:#a0783f;fill-opacity:0.94117647;stroke:#000000;stroke-width:0;stroke-linecap:butt;stroke-linejoin:miter;stroke-miterlimit:4;stroke-opacity:1;stroke-dasharray:none"
       d="m -40.836838,1225.306 15.122552,-427.22953 -71.587015,88.31889 -11.428569,340.42594 c 23.807575,0.3402 44.084004,-1.4431 67.893032,-1.5153 z"
       id="path3025"
       inkscape:connector-curvature="0"
       sodipodi:nodetypes="ccccc" />
    <path
       style="fill:#bb9d61;fill-opacity:1;stroke:#000000;stroke-width:0;stroke-linecap:butt;stroke-linejoin:miter;stroke-miterlimit:4;stroke-opacity:1;stroke-dasharray:none"
       d="m -801.67368,1003.6174 74.44416,47.5762 115.80095,-281.68856 -80,-22.85714 z"
       id="path3021"
       inkscape:connector-curvature="0"
       sodipodi:nodetypes="ccccc" />
    <path
       style="fill:#a0783f;fill-opacity:0.94117647;stroke:#000000;stroke-width:0;stroke-linecap:butt;stroke-linejoin:miter;stroke-miterlimit:4;stroke-opacity:1;stroke-dasharray:none"
       d="m -665.71429,1060.9336 -62.02031,-9.0765 116.13271,-282.52538 63.03046,31.60189 8.57143,11.42857 -3.01559,-1.68854 -116.10895,251.28496 z"
       id="path3027"
       inkscape:connector-curvature="0"
       sodipodi:nodetypes="cccccccc" />
    <path
       style="fill:#c6a971;fill-opacity:1;stroke:#000000;stroke-width:0;stroke-linecap:butt;stroke-linejoin:miter;stroke-miterlimit:4;stroke-opacity:1;stroke-dasharray:none"
       d="m -788.57143,732.36218 34.28572,-108.57143 642.85714,200 -33.78064,120.33177 z"
       id="path3017"
       inkscape:connector-curvature="0"
       sodipodi:nodetypes="ccccc" />
    <path
       style="fill:#aa8747;fill-opacity:1;stroke:#000000;stroke-width:0;stroke-linecap:butt;stroke-linejoin:miter;stroke-miterlimit:4;stroke-opacity:1;stroke-dasharray:none"
       d="m -145.71429,943.79075 71.428576,2.85715 28.571428,-108.57143 -68.571424,-11.42857 z"
       id="path3019"
       inkscape:connector-curvature="0" />
    <path
       style="fill:#f7f3e3;fill-opacity:1;stroke:#000000;stroke-width:0;stroke-linecap:butt;stroke-linejoin:miter;stroke-miterlimit:4;stroke-opacity:1;stroke-dasharray:none"
       d="M -831.42857,600.93361 -82.857143,838.07647 177.64794,-163.6913 -594.28571,-341.92353 z"
       id="path3013"
       inkscape:connector-curvature="0"
       sodipodi:nodetypes="ccccc" />
    <path
       style="fill:#f1e9cc;fill-opacity:1;stroke:#000000;stroke-width:0;stroke-linecap:butt;stroke-linejoin:miter;stroke-miterlimit:4;stroke-opacity:1;stroke-dasharray:none"
       d="M 254.28571,-136.20925 177.14286,-163.18622 -83.030458,838.32901 0,840.93361 z"
       id="path3015"
       inkscape:connector-curvature="0"
       sodipodi:nodetypes="ccccc" />
    <path
       style="fill:#a0783f;fill-opacity:0.94117647;stroke:#000000;stroke-width:0;stroke-linecap:butt;stroke-linejoin:miter;stroke-miterlimit:4;stroke-opacity:1;stroke-dasharray:none"
       d="m -45.709403,-368.16483 -11.364216,151.0178 70.710678,15.9099 1.010153,-153.54318 z"
       id="path3035"
       inkscape:connector-curvature="0"
       sodipodi:nodetypes="ccccc" />
    <path
       style="fill:#bb9d61;fill-opacity:1;stroke:#000000;stroke-width:0;stroke-linecap:butt;stroke-linejoin:miter;stroke-miterlimit:4;stroke-opacity:1;stroke-dasharray:none"
       d="M -93.944187,-225.48078 -59.599,-353.77016 -45.456865,-367.9123 -56.568543,-216.89449 z"
       id="path3037"
       inkscape:connector-curvature="0"
       sodipodi:nodetypes="ccccc" />
    <path
       style="fill:#a0783f;fill-opacity:0.94117647;stroke:#000000;stroke-width:0;stroke-linecap:butt;stroke-linejoin:miter;stroke-miterlimit:4;stroke-opacity:1;stroke-dasharray:none"
       d="m -93.944186,-225.48079 26.516504,-148.49242 8.333758,20.20305 z"
       id="path3039"
       inkscape:connector-curvature="0"
       sodipodi:nodetypes="cccc" />
    <path
       style="fill:#bb9d61;fill-opacity:1;stroke:#000000;stroke-width:0;stroke-linecap:butt;stroke-linejoin:miter;stroke-miterlimit:4;stroke-opacity:1;stroke-dasharray:none"
       d="m -183.09014,-246.44145 22.47589,-150.26019 93.439106,23.2335 -26.769043,147.98735 z"
       id="path3041"
       inkscape:connector-curvature="0"
       sodipodi:nodetypes="ccccc" />
    <path
       style="fill:#a0783f;fill-opacity:0.94117647;stroke:#000000;stroke-width:0;stroke-linecap:butt;stroke-linejoin:miter;stroke-miterlimit:4;stroke-opacity:1;stroke-dasharray:none"
       d="m -192.93914,-248.7143 32.57742,-147.73481 -22.47589,150.26019 z"
       id="path3043"
       inkscape:connector-curvature="0"
       sodipodi:nodetypes="cccc" />
    <g
       transform="matrix(0.99999662,0.00260184,-0.00260184,0.99999662,0,0)"
       style="font-size:58.21764374px;font-style:normal;font-variant:normal;font-weight:normal;font-stretch:normal;line-height:125%;letter-spacing:0px;word-spacing:0px;fill:#4d4d4d;fill-opacity:1;stroke:none;font-family:Levenim MT;-inkscape-font-specification:Levenim MT"
       id="text3815">
      <path
         d="m -500.72098,523.63816 c -2.3e-4,12.82587 -7.76805,19.23885 -23.3035,19.23894 -27.09727,-9e-5 -49.58784,-10.11633 -67.47177,-30.34875 -17.34225,-19.3293 -26.01331,-42.7231 -26.01321,-70.18147 l 0,-84.00099 c -10e-5,-16.4388 -4.9679,-30.52927 -14.9034,-42.27147 -9.93568,-11.74193 -22.94227,-18.33555 -39.01982,-19.78088 -15.35505,-1.26437 -23.03255,-8.03864 -23.03253,-20.32282 -2e-5,-9.93541 7.04521,-16.61936 21.13574,-20.05185 19.14854,-4.69663 32.51643,-10.92895 40.1037,-18.69699 10.47744,-10.83862 15.71621,-25.29038 15.71631,-43.35535 l 0,-84.00099 c -10e-5,-27.458025 8.67096,-50.942149 26.01321,-70.452447 18.06458,-20.232067 40.64547,-30.3483057 67.74274,-30.3487457 15.3548,4.4e-4 23.0323,6.5037357 23.03253,19.5099077 -2.3e-4,11.381189 -8.17451,17.884485 -24.52287,19.509908 -16.34877,1.626225 -29.3102,8.310168 -38.88433,20.051849 -9.57446,11.742444 -14.36161,25.742595 -14.36146,42.000498 l 0,83.73002 c -1.5e-4,18.9682 -3.16147,34.63934 -9.48399,47.01346 -6.32278,12.37453 -17.16161,24.07143 -32.51651,35.09073 28.0002,20.05201 42.00035,47.51037 42.0005,82.37517 l 0,83.73002 c -1.5e-4,16.0776 4.83216,30.07775 14.49694,42.0005 9.66446,11.92267 22.44525,18.60661 38.34239,20.05185 16.61934,1.44512 24.9291,7.94841 24.92933,19.5099 z"
         style="font-size:554.94848633px;fill:#4d4d4d;font-family:Levenim MT;-inkscape-font-specification:Levenim MT"
         id="path3003" />
      <path
         d="m -195.87867,156.74351 c -2.9e-4,54.37507 -26.4651,87.88511 -79.39448,100.53022 -18.06493,4.33572 -51.84594,6.50349 -101.34313,6.5033 l -28.45195,0 0,185.34412 -39.83273,0 0,-398.598249 79.39448,0 c 45.3423,3.99e-4 76.05231,1.987517 92.13012,5.961361 24.2065,5.961747 43.17444,17.884457 56.9039,35.768164 13.72891,17.884424 20.5935,39.381424 20.59379,64.491084 z m -41.18758,0 c -2.6e-4,-13.18695 -3.56804,-25.33547 -10.70335,-36.44559 -7.13581,-11.10947 -16.66494,-19.05794 -28.58744,-23.845444 -11.92292,-4.786796 -31.34249,-7.18037 -58.25875,-7.18073 l -70.45244,0 0,135.485474 67.47176,0.81291 c 45.70356,0.54216 75.60066,-10.02569 89.69138,-31.7036 7.22564,-11.01922 10.83858,-23.39355 10.83884,-37.12302 z"
         style="font-size:554.94848633px;fill:#4d4d4d;font-family:Levenim MT;-inkscape-font-specification:Levenim MT"
         id="path3005" />
      <path
         d="m 36.343458,275.97072 c -2.01e-4,9.93577 -7.226086,16.71003 -21.677675,20.32282 -19.1487737,4.51633 -32.426336,10.83898 -39.832729,18.96797 -10.477672,11.3809 -15.716438,25.74235 -15.716314,43.08438 l 0,84.00099 c -1.24e-4,27.45837 -8.671185,50.85217 -26.01321,70.18147 -17.884162,20.23242 -40.37473,30.34866 -67.47176,30.34875 -15.35504,-9e-5 -23.03254,-6.41307 -23.03253,-19.23894 -1e-5,-11.56149 8.30976,-18.06478 24.92932,-19.5099 15.89692,-1.44524 28.81318,-8.2195 38.748846,-20.32282 9.393579,-11.56145 14.090404,-25.47128 14.090489,-41.72953 l 0,-83.73002 c -8.5e-5,-19.1485 3.16124,-34.95513 9.483983,-47.41991 6.322555,-12.46452 17.161381,-24.11626 32.516513,-34.95526 -15.535779,-11.0193 -26.419767,-22.67104 -32.651998,-34.95525 -6.23242,-12.28379 -9.348583,-28.00009 -9.348498,-47.14894 l 0,-83.73002 C -79.63219,93.878607 -84.419338,79.878456 -93.993564,68.136012 -103.56793,56.394331 -116.39388,49.710388 -132.47144,48.084163 -149.091,46.45874 -157.40077,39.955444 -157.40076,28.574255 c -1e-5,-13.006172 7.67749,-19.5094677 23.03253,-19.5099077 27.27768,4.4e-4 49.858568,10.1166787 67.742731,30.3487457 17.161377,19.510298 25.742115,42.994422 25.742239,70.452447 l 0,84.00099 c -1.24e-4,16.43914 5.012833,30.52962 15.038887,42.27147 10.025776,11.74227 23.0775299,18.24557 39.155301,19.5099 15.354827,1.26473 23.032329,8.03899 23.03253,20.32282 z"
         style="font-size:554.94848633px;fill:#4d4d4d;font-family:Levenim MT;-inkscape-font-specification:Levenim MT"
         id="path3007" />
      <path
         d="m 586.68538,302.52588 c -3.4e-4,43.35545 -14.72308,79.89133 -44.16827,109.60774 -29.44577,29.71649 -65.84616,44.57471 -109.20129,44.57472 -43.35548,-1e-5 -79.80104,-14.81307 -109.33677,-44.43923 -29.53588,-29.62609 -44.30378,-66.20713 -44.30375,-109.74323 -3e-5,-40.82611 13.54851,-76.23294 40.64564,-106.22061 29.80671,-33.05817 67.47163,-49.58738 112.99488,-49.58768 45.34225,3e-4 82.91685,16.43918 112.72392,49.31671 27.09677,29.98767 40.6453,65.48483 40.64564,106.49158 z m -38.47788,0.81291 c -2.9e-4,-32.51634 -11.06493,-60.5618 -33.19394,-84.13648 -22.12953,-23.57422 -49.36208,-35.36144 -81.69774,-35.36171 -32.33601,2.7e-4 -59.56856,11.78749 -81.69773,35.36171 -22.12938,23.57468 -33.19401,51.62014 -33.19394,84.13648 -7e-5,20.95521 4.96772,40.55542 14.9034,58.80069 10.2968,18.78739 24.29695,33.23916 42.00049,43.35535 17.7033,10.11629 37.03254,15.1744 57.98778,15.17438 44.80031,2e-5 77.94905,-19.23889 99.44634,-57.71681 10.2966,-18.42592 15.44505,-38.29711 15.44534,-59.61361 z"
         style="font-size:554.94848633px;fill:#4d4d4d;font-family:Levenim MT;-inkscape-font-specification:Levenim MT"
         id="path3009" />
      <path
         d="m 990.70306,369.99764 c -1.9e-4,24.92938 -8.58093,45.61348 -25.74224,62.05235 -17.16164,16.4389 -38.29736,24.65834 -63.4072,24.65835 -36.31017,-1e-5 -65.30404,-13.90983 -86.98168,-41.72952 l 23.84545,-27.0971 c 19.3292,21.85836 39.83265,32.78751 61.5104,32.78749 14.27102,2e-5 26.96148,-4.65164 38.07142,-13.95501 11.10966,-9.30328 16.66456,-21.00018 16.66471,-35.09073 -1.5e-4,-14.27105 -6.59377,-26.82602 -19.78088,-37.66496 -6.50343,-5.4193 -19.32937,-13.00648 -38.47787,-22.76156 -21.8584,-11.19999 -37.84567,-22.30978 -47.96186,-33.32943 -13.72923,-14.81289 -20.59382,-32.51631 -20.59379,-53.1103 -3e-5,-22.94196 7.72264,-41.6841 23.16802,-56.22647 15.44527,-14.54182 34.63903,-21.81286 57.58132,-21.81316 27.09696,3e-4 54.37467,13.27786 81.83323,39.83272 l -24.38739,25.2003 c -20.23264,-19.6903 -40.0135,-29.53556 -59.34264,-29.53583 -11.74216,2.7e-4 -22.12937,3.88418 -31.16165,11.65175 -9.03243,7.76808 -13.54861,17.4327 -13.54855,28.99389 -6e-5,19.51011 18.78724,39.02 56.36196,58.52972 23.12271,11.92288 39.92289,23.30365 50.40059,34.14234 14.63225,15.17449 21.94846,33.32953 21.94865,54.46516 z"
         style="font-size:554.94848633px;fill:#4d4d4d;font-family:Levenim MT;-inkscape-font-specification:Levenim MT"
         id="path3011" />
      <path
         d="m 1374.6689,186.82128 -60.1556,0 0,262.29987 -38.2069,0 0,-262.29987 -51.7554,0 0,-32.51651 51.7554,0 0,-109.472259 38.2069,0 0,109.472259 60.1556,0 z"
         style="font-size:554.94848633px;fill:#4d4d4d;font-family:Levenim MT;-inkscape-font-specification:Levenim MT"
         id="path3014" />
      <path
         d="m 1907.1268,304.69364 -265.0096,0 c 0.7226,33.05857 11.0194,60.60725 30.8907,82.64614 20.955,23.12289 47.6908,34.68431 80.2074,34.68428 31.4324,3e-5 58.0779,-9.57427 79.9364,-28.72292 9.9354,-8.671 20.6839,-22.67116 32.2456,-42.00049 l 31.9746,16.80019 c -19.8715,38.83921 -47.4202,65.03305 -82.6462,78.58158 -17.1617,6.68394 -36.5813,10.02591 -58.2587,10.02592 -44.2588,-1e-5 -80.885,-14.63242 -109.8787,-43.89729 -28.994,-29.2648 -43.4909,-66.02648 -43.4909,-110.28517 0,-37.39381 11.4711,-70.7232 34.4133,-99.98828 29.0842,-37.21306 68.0136,-55.81971 116.7885,-55.82001 50.2197,3e-4 90.3234,19.05857 120.3111,57.17486 21.3161,27.09732 32.1549,60.69768 32.5165,100.80119 z m -41.7295,-32.78748 c -9.3939,-37.39378 -29.5361,-63.31664 -60.4265,-77.76866 -15.8972,-7.40628 -32.6071,-11.10954 -50.1297,-11.10981 -28.9037,2.7e-4 -53.7426,9.30359 -74.517,27.91001 -15.1744,13.54877 -26.6455,33.87157 -34.4133,60.96846 z"
         style="font-size:554.94848633px;fill:#4d4d4d;font-family:Levenim MT;-inkscape-font-specification:Levenim MT"
         id="path3016" />
      <path
         d="m 2298.1378,156.74351 -19.7809,31.97457 c -7.9486,-3.43203 -14.6325,-5.14818 -20.0518,-5.14845 -30.3489,2.7e-4 -51.4846,21.31663 -63.4072,63.94914 -4.6969,16.80039 -7.0453,50.76205 -7.0453,101.88508 l 0,99.7173 -38.7488,0 0,-294.81638 38.7488,0 0,43.08438 c 22.9422,-33.78076 48.5037,-50.67126 76.6848,-50.67156 10.4774,3e-4 21.6775,3.34227 33.6004,10.02592 z"
         style="font-size:554.94848633px;fill:#4d4d4d;font-family:Levenim MT;-inkscape-font-specification:Levenim MT"
         id="path3018" />
    </g>
    <g
       style="font-size:138.21928406px;font-style:normal;font-variant:normal;font-weight:normal;font-stretch:normal;line-height:125%;letter-spacing:0px;word-spacing:0px;fill:#4d4d4d;fill-opacity:1;stroke:none;font-family:Segoe UI;-inkscape-font-specification:Segoe UI"
       id="text3819">
      <path
         d="m 251.28312,668.63977 -11.3383,0 0,-44.13838 -50.07749,0 0,44.13838 -11.3383,0 0,-96.78049 11.3383,0 0,42.45113 50.07749,0 0,-42.45113 11.3383,0 z"
         style=""
         id="path3022" />
      <path
         d="m 334.02572,582.11774 -27.94081,0 0,86.52203 -11.3383,0 0,-86.52203 -27.87332,0 0,-10.25846 67.15243,0 z"
         style=""
         id="path3024" />
      <path
         d="m 447.81368,668.63977 -11.27081,0 0,-64.92527 c -10e-5,-5.12916 0.31485,-11.40571 0.94486,-18.82968 l -0.26996,0 c -1.07994,4.36443 -2.0473,7.49146 -2.90207,9.3811 l -33.07004,74.37385 -5.53417,0 -33.00256,-73.83393 c -0.94488,-2.1596 -1.91223,-5.4666 -2.90206,-9.92102 l -0.26996,0 c 0.35992,3.8695 0.53989,10.19105 0.53992,18.96466 l 0,64.79029 -10.93336,0 0,-96.78049 14.98275,0 29.69555,67.48988 c 2.2946,5.17425 3.77937,9.04367 4.45433,11.60826 l 0.40494,0 c 1.93465,-5.30918 3.48691,-9.26858 4.6568,-11.87822 l 30.30296,-67.21992 14.17288,0 z"
         style=""
         id="path3026" />
      <path
         d="m 523.53734,668.63977 -50.21248,0 0,-96.78049 11.3383,0 0,86.52203 38.87418,0 z"
         style=""
         id="path3028" />
      <path
         d="m 536.76535,666.27762 0,-11.74324 c 6.61399,4.27437 13.34047,6.41155 20.17947,6.41154 6.83894,10e-6 12.35061,-1.9347 16.53502,-5.80413 4.18433,-3.8694 6.27651,-8.99863 6.27656,-15.38769 -5e-5,-6.34401 -2.13723,-11.29327 -6.41154,-14.84777 -4.2744,-3.55442 -10.39347,-5.33166 -18.35724,-5.33171 -2.69963,5e-5 -7.76136,0.27001 -15.18523,0.80988 l 0,-48.52522 46.83798,0 0,9.9885 -36.37705,0 0,28.34575 c 2.96953,-0.17991 5.71412,-0.2699 8.23377,-0.26996 10.34841,6e-5 18.3572,2.59842 24.0264,7.79508 5.66909,5.19677 8.50366,12.31695 8.50372,21.36055 -6e-5,9.35862 -3.04835,16.89498 -9.14487,22.60911 -6.09664,5.71415 -14.45413,8.57122 -25.0725,8.57122 -8.95368,0 -15.63517,-1.3273 -20.04449,-3.98191 z"
         style=""
         id="path3030" />
      <path
         d="m 696.31143,665.46775 c -5.30926,3.19452 -11.60831,4.79178 -18.89717,4.79178 -9.85355,0 -17.8061,-3.20577 -23.85767,-9.61731 -6.05161,-6.41153 -9.0774,-14.72402 -9.07739,-24.93751 -10e-6,-11.38325 3.262,-20.52812 9.78603,-27.43464 6.524,-6.9064 15.23019,-10.35963 26.11859,-10.3597 6.07404,7e-5 11.42823,1.1249 16.06259,3.3745 l 0,11.3383 c -5.12929,-3.5994 -10.61846,-5.39913 -16.46753,-5.39919 -7.06398,6e-5 -12.85686,2.53092 -17.37865,7.59261 -4.52184,5.06179 -6.78275,11.70953 -6.78273,19.94326 -2e-5,8.09881 2.12591,14.48785 6.37779,19.16713 4.25184,4.6793 9.95473,7.01895 17.10869,7.01894 6.02905,10e-6 11.69819,-2.00219 17.00745,-6.0066 z"
         style=""
         id="path3032" />
      <path
         d="m 762.65398,668.63977 -11.06834,0 0,-10.79838 -0.26996,0 c -4.81432,8.27876 -11.90075,12.41814 -21.25931,12.41814 -6.88399,0 -12.27193,-1.82223 -16.16383,-5.46668 -3.89192,-3.64445 -5.83788,-8.48122 -5.83787,-14.51033 -10e-6,-12.91303 7.60384,-20.4269 22.81158,-22.54162 l 20.71939,-2.90206 c -5e-5,-11.74319 -4.74683,-17.6148 -14.24036,-17.61486 -8.32378,6e-5 -15.83765,2.83463 -22.54163,8.50372 l 0,-11.3383 c 6.79397,-4.31928 14.62278,-6.47896 23.48648,-6.47903 16.24252,7e-5 24.36379,8.59378 24.36385,25.78114 z m -11.06834,-34.95976 -16.67,2.29466 c -5.12926,0.71992 -8.99868,1.99098 -11.60826,3.81317 -2.60963,1.82226 -3.91443,5.05052 -3.91441,9.6848 -2e-5,3.37451 1.20355,6.13035 3.6107,8.26751 2.40712,2.13719 5.61289,3.20578 9.61731,3.20577 5.48914,10e-6 10.02221,-1.92345 13.59922,-5.77038 3.57691,-3.84691 5.36539,-8.71742 5.36544,-14.61156 z"
         style=""
         id="path3034" />
      <path
         d="m 841.00977,668.63977 -11.06834,0 0,-39.41409 c -6e-5,-14.66775 -5.35425,-22.00164 -16.06259,-22.0017 -5.53421,6e-5 -10.11227,2.08099 -13.73419,6.24281 -3.62199,4.16193 -5.43296,9.41488 -5.43294,15.75889 l 0,39.41409 -11.06834,0 0,-69.10964 11.06834,0 0,11.47328 0.26996,0 c 5.21919,-8.72863 12.77805,-13.09297 22.6766,-13.09304 7.55882,7e-5 13.34044,2.44095 17.3449,7.32265 4.00433,4.88183 6.00653,11.93452 6.0066,21.15808 z"
         style=""
         id="path3036" />
      <path
         d="m 916.261,599.53013 -27.53588,69.10964 -10.86587,0 -26.18607,-69.10964 12.14817,0 17.54737,50.21247 c 1.30478,3.68947 2.11466,6.90648 2.42964,9.65106 l 0.26996,0 c 0.4499,-3.46447 1.16979,-6.5915 2.15968,-9.3811 l 18.35725,-50.48243 z"
         style=""
         id="path3038" />
      <path
         d="m 977.5418,668.63977 -11.06834,0 0,-10.79838 -0.26996,0 c -4.81432,8.27876 -11.90076,12.41814 -21.25931,12.41814 -6.88399,0 -12.27193,-1.82223 -16.16383,-5.46668 -3.89193,-3.64445 -5.83788,-8.48122 -5.83788,-14.51033 0,-12.91303 7.60385,-20.4269 22.81158,-22.54162 l 20.7194,-2.90206 c -5e-5,-11.74319 -4.74684,-17.6148 -14.24037,-17.61486 -8.32378,6e-5 -15.83764,2.83463 -22.54162,8.50372 l 0,-11.3383 c 6.79396,-4.31928 14.62278,-6.47896 23.48648,-6.47903 16.24251,7e-5 24.36379,8.59378 24.36385,25.78114 z m -11.06834,-34.95976 -16.67,2.29466 c -5.12926,0.71992 -8.99868,1.99098 -11.60826,3.81317 -2.60963,1.82226 -3.91443,5.05052 -3.91442,9.6848 -1e-5,3.37451 1.20355,6.13035 3.61071,8.26751 2.40712,2.13719 5.61288,3.20578 9.61731,3.20577 5.48914,10e-6 10.02221,-1.92345 13.59921,-5.77038 3.57692,-3.84691 5.3654,-8.71742 5.36545,-14.61156 z"
         style=""
         id="path3040" />
      <path
         d="m 994.34675,666.14264 0,-11.87821 c 6.02905,4.45434 12.66555,6.6815 19.90955,6.68149 9.7185,10e-6 14.5777,-3.2395 14.5778,-9.71854 -10e-5,-1.8447 -0.4162,-3.40822 -1.2486,-4.69055 -0.8324,-1.28228 -1.9572,-2.41836 -3.3745,-3.40824 -1.4173,-0.98982 -3.082,-1.87844 -4.9942,-2.66585 -1.9123,-0.78735 -3.9707,-1.60848 -6.1753,-2.46338 -3.0596,-1.21478 -5.748,-2.44085 -8.0651,-3.6782 -2.3172,-1.23727 -4.2519,-2.63206 -5.80412,-4.18437 -1.55228,-1.55223 -2.7221,-3.31821 -3.50947,-5.29795 -0.78739,-1.97966 -1.18108,-4.29681 -1.18108,-6.95146 0,-3.23946 0.74238,-6.10778 2.22717,-8.60496 1.48477,-2.49707 3.4645,-4.58925 5.9391,-6.27656 2.4746,-1.68718 5.2979,-2.95824 8.47,-3.81318 3.172,-0.8548 6.4452,-1.28224 9.8198,-1.28231 5.984,7e-5 11.3382,1.03492 16.0626,3.10454 l 0,11.20332 c -5.0843,-3.32944 -10.9334,-4.99419 -17.5474,-4.99425 -2.0697,6e-5 -3.9369,0.23627 -5.6017,0.70864 -1.6647,0.47249 -3.0933,1.13614 -4.2856,1.99095 -1.1923,0.85493 -2.1147,1.87853 -2.7671,3.07079 -0.6524,1.19238 -0.9786,2.50843 -0.9786,3.94816 0,1.79978 0.3262,3.30705 0.9786,4.52182 0.6524,1.21486 1.6085,2.2947 2.8684,3.23952 1.2597,0.9449 2.7895,1.79977 4.5893,2.56461 1.7997,0.76493 3.8469,1.5973 6.1415,2.49713 3.0596,1.16986 5.8041,2.37343 8.2338,3.61071 2.4296,1.23734 4.4993,2.63213 6.2091,4.18437 1.7097,1.5523 3.0257,3.34078 3.9481,5.36544 0.9224,2.02472 1.3835,4.43186 1.3836,7.22142 -10e-5,3.4195 -0.7537,6.38906 -2.2609,8.90867 -1.5073,2.51963 -3.5208,4.61181 -6.0404,6.27656 -2.5196,1.66475 -5.4217,2.90206 -8.7062,3.71194 -3.2845,0.80988 -6.7265,1.21482 -10.3259,1.21482 -7.109,0 -13.27304,-1.3723 -18.49225,-4.11689 z"
         style=""
         id="path3042" />
      <path
         d="m 1106.245,658.65127 -0.27,0 0,9.9885 -11.0683,0 0,-102.31466 11.0683,0 0,45.3532 0.27,0 c 5.4441,-9.17856 13.4079,-13.76787 23.8914,-13.76794 8.8636,7e-5 15.8038,3.09336 20.8206,9.27986 5.0167,6.18663 7.5251,14.47663 7.5251,24.87002 0,11.56329 -2.8121,20.82065 -8.4362,27.77209 -5.6242,6.95146 -13.318,10.42719 -23.0815,10.42719 -9.1337,0 -16.0402,-3.86942 -20.7194,-11.60826 z m -0.27,-27.87332 0,9.65105 c 0,5.71416 1.856,10.56218 5.5679,14.54407 3.7119,3.98191 8.425,5.97286 14.1392,5.97285 6.7039,10e-6 11.9569,-2.5646 15.7589,-7.69384 3.8018,-5.12921 5.7028,-12.26064 5.7028,-21.3943 0,-7.6938 -1.7772,-13.72289 -5.3317,-18.08729 -3.5545,-4.36428 -8.3688,-6.54645 -14.4428,-6.54651 -6.4341,6e-5 -11.6083,2.23847 -15.5227,6.71524 -3.9144,4.47688 -5.8716,10.08978 -5.8716,16.83873 z"
         style=""
         id="path3044" />
      <path
         d="m 1225.6346,668.63977 -11.0684,0 0,-10.79838 -0.2699,0 c -4.8144,8.27876 -11.9008,12.41814 -21.2593,12.41814 -6.884,0 -12.272,-1.82223 -16.1639,-5.46668 -3.8919,-3.64445 -5.8379,-8.48122 -5.8378,-14.51033 -10e-5,-12.91303 7.6038,-20.4269 22.8115,-22.54162 l 20.7194,-2.90206 c 0,-11.74319 -4.7468,-17.6148 -14.2403,-17.61486 -8.3238,6e-5 -15.8377,2.83463 -22.5417,8.50372 l 0,-11.3383 c 6.794,-4.31928 14.6228,-6.47896 23.4865,-6.47903 16.2425,7e-5 24.3638,8.59378 24.3639,25.78114 z m -11.0684,-34.95976 -16.67,2.29466 c -5.1292,0.71992 -8.9986,1.99098 -11.6082,3.81317 -2.6097,1.82226 -3.9145,5.05052 -3.9144,9.6848 -10e-5,3.37451 1.2035,6.13035 3.6107,8.26751 2.4071,2.13719 5.6128,3.20578 9.6173,3.20577 5.4891,10e-6 10.0222,-1.92345 13.5992,-5.77038 3.5769,-3.84691 5.3654,-8.71742 5.3654,-14.61156 z"
         style=""
         id="path3046" />
      <path
         d="m 1242.4396,666.14264 0,-11.87821 c 6.0291,4.45434 12.6656,6.6815 19.9095,6.68149 9.7185,10e-6 14.5778,-3.2395 14.5778,-9.71854 0,-1.8447 -0.4162,-3.40822 -1.2485,-4.69055 -0.8325,-1.28228 -1.9573,-2.41836 -3.3745,-3.40824 -1.4174,-0.98982 -3.0821,-1.87844 -4.9943,-2.66585 -1.9122,-0.78735 -3.9707,-1.60848 -6.1753,-2.46338 -3.0596,-1.21478 -5.7479,-2.44085 -8.0651,-3.6782 -2.3171,-1.23727 -4.2518,-2.63206 -5.8041,-4.18437 -1.5523,-1.55223 -2.7221,-3.31821 -3.5095,-5.29795 -0.7873,-1.97966 -1.181,-4.29681 -1.181,-6.95146 0,-3.23946 0.7423,-6.10778 2.2271,-8.60496 1.4848,-2.49707 3.4645,-4.58925 5.9391,-6.27656 2.4747,-1.68718 5.298,-2.95824 8.47,-3.81318 3.172,-0.8548 6.4453,-1.28224 9.8198,-1.28231 5.9841,7e-5 11.3383,1.03492 16.0626,3.10454 l 0,11.20332 c -5.0843,-3.32944 -10.9334,-4.99419 -17.5474,-4.99425 -2.0697,6e-5 -3.9369,0.23627 -5.6016,0.70864 -1.6648,0.47249 -3.0933,1.13614 -4.2856,1.99095 -1.1924,0.85493 -2.1147,1.87853 -2.7671,3.07079 -0.6525,1.19238 -0.9787,2.50843 -0.9786,3.94816 -10e-5,1.79978 0.3261,3.30705 0.9786,4.52182 0.6524,1.21486 1.6085,2.2947 2.8683,3.23952 1.2598,0.9449 2.7895,1.79977 4.5893,2.56461 1.7997,0.76493 3.8469,1.5973 6.1416,2.49713 3.0595,1.16986 5.8041,2.37343 8.2337,3.61071 2.4296,1.23734 4.4993,2.63213 6.2091,4.18437 1.7097,1.5523 3.0258,3.34078 3.9482,5.36544 0.9223,2.02472 1.3835,4.43186 1.3835,7.22142 0,3.4195 -0.7537,6.38906 -2.2609,8.90867 -1.5073,2.51963 -3.5208,4.61181 -6.0403,6.27656 -2.5197,1.66475 -5.4218,2.90206 -8.7062,3.71194 -3.2846,0.80988 -6.7266,1.21482 -10.326,1.21482 -7.1089,0 -13.273,-1.3723 -18.4922,-4.11689 z"
         style=""
         id="path3048" />
      <path
         d="m 1360.7493,636.85203 -48.7952,0 c 0.18,7.69388 2.2497,13.63298 6.2091,17.81733 3.9594,4.18439 9.4036,6.27657 16.3325,6.27656 7.7838,10e-6 14.9378,-2.5646 21.4618,-7.69384 l 0,10.39344 c -6.0741,4.40934 -14.1054,6.61401 -24.0939,6.61401 -9.7635,0 -17.4349,-3.13828 -23.014,-9.41484 -5.5792,-6.27655 -8.3688,-15.10646 -8.3688,-26.48978 0,-10.75334 3.0483,-19.51577 9.1449,-26.28731 6.0966,-6.77142 13.6667,-10.15716 22.7104,-10.15723 9.0436,7e-5 16.04,2.92463 20.9893,8.77369 4.9492,5.84918 7.4238,13.97045 7.4239,24.36384 z m -11.3383,-9.38109 c -0.045,-6.38899 -1.5861,-11.36074 -4.623,-14.91526 -3.0371,-3.55441 -7.2553,-5.33164 -12.6544,-5.3317 -5.2192,6e-5 -9.6511,1.86728 -13.2955,5.60166 -3.6445,3.73449 -5.8941,8.61625 -6.749,14.6453 z"
         style=""
         id="path3050" />
      <path
         d="m 1436.5405,668.63977 -11.0683,0 0,-11.74324 -0.27,0 c -5.1292,8.90867 -13.0481,13.363 -23.7564,13.363 -8.6837,0 -15.6239,-3.09329 -20.8206,-9.27986 -5.1968,-6.18656 -7.7951,-14.61154 -7.7951,-25.27496 0,-11.42825 2.8795,-20.58436 8.6387,-27.46839 5.7591,-6.8839 13.4305,-10.32588 23.014,-10.32595 9.4936,7e-5 16.4,3.73451 20.7194,11.20332 l 0.27,0 0,-42.78858 11.0683,0 z m -11.0683,-31.24782 0,-10.19097 c -10e-5,-5.57912 -1.8448,-10.3034 -5.5342,-14.17287 -3.6895,-3.86937 -8.3688,-5.80407 -14.0379,-5.80413 -6.749,6e-5 -12.0582,2.47468 -15.9276,7.42388 -3.8694,4.94931 -5.8041,11.78828 -5.8041,20.51693 0,7.96383 1.8559,14.25163 5.5679,18.86342 3.7119,4.61182 8.6949,6.91772 14.949,6.91771 6.164,10e-6 11.1695,-2.22715 15.0165,-6.68149 3.8469,-4.45432 5.7703,-10.07847 5.7704,-16.87248 z"
         style=""
         id="path3052" />
      <path
         d="m 1543.9843,665.46775 c -5.3092,3.19452 -11.6083,4.79178 -18.8971,4.79178 -9.8536,0 -17.8061,-3.20577 -23.8577,-9.61731 -6.0516,-6.41153 -9.0774,-14.72402 -9.0774,-24.93751 0,-11.38325 3.262,-20.52812 9.786,-27.43464 6.524,-6.9064 15.2302,-10.35963 26.1186,-10.3597 6.0741,7e-5 11.4283,1.1249 16.0626,3.3745 l 0,11.3383 c -5.1293,-3.5994 -10.6184,-5.39913 -16.4675,-5.39919 -7.064,6e-5 -12.8569,2.53092 -17.3787,7.59261 -4.5218,5.06179 -6.7827,11.70953 -6.7827,19.94326 0,8.09881 2.1259,14.48785 6.3778,19.16713 4.2518,4.6793 9.9547,7.01895 17.1087,7.01894 6.029,10e-6 11.6982,-2.00219 17.0074,-6.0066 z"
         style=""
         id="path3054" />
      <path
         d="m 1589.7425,670.25953 c -10.2135,0 -18.3685,-3.22827 -24.465,-9.6848 -6.0966,-6.45652 -9.1449,-15.01648 -9.1449,-25.6799 0,-11.60822 3.172,-20.67435 9.5161,-27.19843 6.344,-6.52395 14.9152,-9.78596 25.7136,-9.78603 10.3034,7e-5 18.3459,3.17209 24.1276,9.51607 5.7816,6.34411 8.6724,15.14028 8.6725,26.38855 -10e-5,11.02337 -3.1159,19.85329 -9.3474,26.48978 -6.2316,6.63651 -14.5891,9.95476 -25.0725,9.95476 z m 0.8099,-63.03555 c -7.1089,6e-5 -12.7331,2.41844 -16.8725,7.25516 -4.1394,4.83682 -6.209,11.50707 -6.209,20.01075 0,8.1888 2.0921,14.64532 6.2765,19.3696 4.1844,4.7243 9.786,7.08644 16.805,7.08643 7.1539,10e-6 12.6543,-2.31714 16.5013,-6.95145 3.8469,-4.63429 5.7703,-11.2258 5.7704,-19.77454 -10e-5,-8.63866 -1.9235,-15.29766 -5.7704,-19.97701 -3.847,-4.67924 -9.3474,-7.01888 -16.5013,-7.01894 z"
         style=""
         id="path3056" />
      <path
         d="m 1700.8308,668.63977 -11.0683,0 0,-11.74324 -0.27,0 c -5.1293,8.90867 -13.0481,13.363 -23.7564,13.363 -8.6837,0 -15.6239,-3.09329 -20.8206,-9.27986 -5.1968,-6.18656 -7.7951,-14.61154 -7.7951,-25.27496 0,-11.42825 2.8795,-20.58436 8.6387,-27.46839 5.7591,-6.8839 13.4304,-10.32588 23.014,-10.32595 9.4936,7e-5 16.4,3.73451 20.7194,11.20332 l 0.27,0 0,-42.78858 11.0683,0 z m -11.0683,-31.24782 0,-10.19097 c -10e-5,-5.57912 -1.8448,-10.3034 -5.5342,-14.17287 -3.6895,-3.86937 -8.3688,-5.80407 -14.0379,-5.80413 -6.749,6e-5 -12.0582,2.47468 -15.9276,7.42388 -3.8694,4.94931 -5.8041,11.78828 -5.8041,20.51693 0,7.96383 1.8559,14.25163 5.5679,18.86342 3.7119,4.61182 8.6949,6.91772 14.949,6.91771 6.164,10e-6 11.1695,-2.22715 15.0165,-6.68149 3.8469,-4.45432 5.7703,-10.07847 5.7704,-16.87248 z"
         style=""
         id="path3058" />
      <path
         d="m 1778.9167,636.85203 -48.7952,0 c 0.1799,7.69388 2.2496,13.63298 6.2091,17.81733 3.9593,4.18439 9.4035,6.27657 16.3325,6.27656 7.7838,10e-6 14.9377,-2.5646 21.4618,-7.69384 l 0,10.39344 c -6.0742,4.40934 -14.1054,6.61401 -24.0939,6.61401 -9.7636,0 -17.4349,-3.13828 -23.0141,-9.41484 -5.5791,-6.27655 -8.3687,-15.10646 -8.3687,-26.48978 0,-10.75334 3.0483,-19.51577 9.1449,-26.28731 6.0965,-6.77142 13.6667,-10.15716 22.7103,-10.15723 9.0436,7e-5 16.0401,2.92463 20.9894,8.77369 4.9492,5.84918 7.4238,13.97045 7.4239,24.36384 z m -11.3383,-9.38109 c -0.045,-6.38899 -1.5861,-11.36074 -4.6231,-14.91526 -3.0371,-3.55441 -7.2552,-5.33164 -12.6543,-5.3317 -5.2193,6e-5 -9.6511,1.86728 -13.2955,5.60166 -3.6445,3.73449 -5.8942,8.61625 -6.749,14.6453 z"
         style=""
         id="path3060" />
      <path
         d="m 1889.0601,636.85203 -48.7952,0 c 0.18,7.69388 2.2497,13.63298 6.2091,17.81733 3.9594,4.18439 9.4035,6.27657 16.3325,6.27656 7.7838,10e-6 14.9377,-2.5646 21.4618,-7.69384 l 0,10.39344 c -6.0741,4.40934 -14.1054,6.61401 -24.0939,6.61401 -9.7635,0 -17.4349,-3.13828 -23.014,-9.41484 -5.5792,-6.27655 -8.3688,-15.10646 -8.3688,-26.48978 0,-10.75334 3.0483,-19.51577 9.1449,-26.28731 6.0966,-6.77142 13.6667,-10.15716 22.7104,-10.15723 9.0436,7e-5 16.04,2.92463 20.9893,8.77369 4.9492,5.84918 7.4238,13.97045 7.4239,24.36384 z m -11.3383,-9.38109 c -0.045,-6.38899 -1.5861,-11.36074 -4.6231,-14.91526 -3.037,-3.55441 -7.2552,-5.33164 -12.6543,-5.3317 -5.2193,6e-5 -9.6511,1.86728 -13.2955,5.60166 -3.6445,3.73449 -5.8942,8.61625 -6.749,14.6453 z"
         style=""
         id="path3062" />
      <path
         d="m 1964.8513,668.63977 -11.0683,0 0,-11.74324 -0.27,0 c -5.1293,8.90867 -13.0481,13.363 -23.7564,13.363 -8.6837,0 -15.6239,-3.09329 -20.8206,-9.27986 -5.1968,-6.18656 -7.7951,-14.61154 -7.7951,-25.27496 0,-11.42825 2.8795,-20.58436 8.6387,-27.46839 5.7591,-6.8839 13.4304,-10.32588 23.014,-10.32595 9.4936,7e-5 16.4,3.73451 20.7194,11.20332 l 0.27,0 0,-42.78858 11.0683,0 z m -11.0683,-31.24782 0,-10.19097 c -10e-5,-5.57912 -1.8448,-10.3034 -5.5342,-14.17287 -3.6895,-3.86937 -8.3688,-5.80407 -14.0379,-5.80413 -6.749,6e-5 -12.0582,2.47468 -15.9276,7.42388 -3.8694,4.94931 -5.8041,11.78828 -5.8041,20.51693 0,7.96383 1.8559,14.25163 5.5679,18.86342 3.7119,4.61182 8.6949,6.91772 14.949,6.91771 6.164,10e-6 11.1695,-2.22715 15.0165,-6.68149 3.8469,-4.45432 5.7703,-10.07847 5.7704,-16.87248 z"
         style=""
         id="path3064" />
      <path
         d="m 1993.062,581.98276 c -1.9797,9e-5 -3.6669,-0.67481 -5.0617,-2.0247 -1.3948,-1.34971 -2.0922,-3.05945 -2.0922,-5.12923 0,-2.06959 0.6974,-3.79058 2.0922,-5.16298 1.3948,-1.37219 3.082,-2.05834 5.0617,-2.05844 2.0247,1e-4 3.7457,0.68625 5.163,2.05844 1.4173,1.3724 2.1259,3.09339 2.1259,5.16298 0,1.9798 -0.7086,3.66704 -2.1259,5.06174 -1.4173,1.39488 -3.1383,2.09228 -5.163,2.09219 z m 5.3992,86.65701 -11.0683,0 0,-69.10964 11.0683,0 z"
         style=""
         id="path3066" />
      <path
         d="m 2052.9256,667.96487 c -2.6097,1.43979 -6.0517,2.15968 -10.326,2.15968 -12.1032,0 -18.1548,-6.74899 -18.1548,-20.24697 l 0,-40.89887 -11.8782,0 0,-9.44858 11.8782,0 0,-16.87247 11.0684,-3.57697 0,20.44944 17.4124,0 0,9.44858 -17.4124,0 0,38.94167 c -1e-4,4.63432 0.7873,7.94132 2.3621,9.92101 1.5747,1.97971 4.1843,2.96956 7.8288,2.96955 2.7896,1e-5 5.1967,-0.76487 7.2215,-2.29465 z"
         style=""
         id="path3068" />
      <path
         d="m 2096.7265,670.25953 c -10.2134,0 -18.3685,-3.22827 -24.465,-9.6848 -6.0966,-6.45652 -9.1449,-15.01648 -9.1449,-25.6799 0,-11.60822 3.172,-20.67435 9.5161,-27.19843 6.344,-6.52395 14.9152,-9.78596 25.7136,-9.78603 10.3034,7e-5 18.3459,3.17209 24.1276,9.51607 5.7816,6.34411 8.6724,15.14028 8.6725,26.38855 -1e-4,11.02337 -3.1159,19.85329 -9.3474,26.48978 -6.2316,6.63651 -14.5891,9.95476 -25.0725,9.95476 z m 0.8099,-63.03555 c -7.1089,6e-5 -12.7331,2.41844 -16.8724,7.25516 -4.1394,4.83682 -6.2091,11.50707 -6.2091,20.01075 0,8.1888 2.0922,14.64532 6.2765,19.3696 4.1844,4.7243 9.786,7.08644 16.805,7.08643 7.1539,10e-6 12.6543,-2.31714 16.5013,-6.95145 3.8469,-4.63429 5.7703,-11.2258 5.7704,-19.77454 -1e-4,-8.63866 -1.9235,-15.29766 -5.7704,-19.97701 -3.847,-4.67924 -9.3474,-7.01888 -16.5013,-7.01894 z"
         style=""
         id="path3070" />
      <path
         d="m 2184.8683,610.73345 c -1.9348,-1.48472 -4.7244,-2.22711 -8.3688,-2.22717 -4.7243,6e-5 -8.6725,2.22723 -11.8445,6.6815 -3.172,4.45438 -4.758,10.52847 -4.758,18.22227 l 0,35.22972 -11.0683,0 0,-69.10964 11.0683,0 0,14.24036 0.27,0 c 1.5747,-4.85921 3.9818,-8.64989 7.2214,-11.37204 3.2395,-2.72202 6.8614,-4.08307 10.8659,-4.08314 2.8795,7e-5 5.0842,0.31502 6.614,0.94486 z"
         style=""
         id="path3072" />
    </g>
  </g>
</svg>
